# xmcd
#
# Track frame offsets:
#	150
#	15695
#	31201
#	45242
#	60840
#	78744
#	91829
#	98416
#	109440
#	122574
#	139930
#	152664
#	172256
#	185457
#	200285
#
# Disc length: 2835 seconds
#
# Revision: 2
# Processed by: cddbd v1.5.2PL0 Copyright (c) Steve Scherf et al.
# Submitted via: audiograbber 1.83.01
#
DISCID=b90b110f
DTITLE=Patty Loveless - Mountain Soul - 2
DYEAR=2010
DGENRE=Country
TTITLE0=Busted
TTITLE1=Fools Thin Air
TTITLE2=A Handful Of Dust
TTITLE3=Half Over You
TTITLE4=Prisoner's Tears
TTITLE5=Working On A Building
TTITLE6=Friends In Gloryland
TTITLE7=(we Are All) Children Of Abraham
TTITLE8=Big Chance
TTITLE9=When The Last Curtain Falls
TTITLE10=Blue Memories
TTITLE11=You Burned The Bridge
TTITLE12=Bramble And The Rose
TTITLE13=Feelings Of Love
TTITLE14=Diamond In My Crown
EXTD=
EXTT0=
EXTT1=
EXTT2=
EXTT3=
EXTT4=
EXTT5=
EXTT6=
EXTT7=
EXTT8=
EXTT9=
EXTT10=
EXTT11=
EXTT12=
EXTT13=
EXTT14=
PLAYORDER=
